<svg xmlns="http://www.w3.org/2000/svg" xmlns:xlink="http://www.w3.org/1999/xlink" width="500" zoomAndPan="magnify" viewBox="0 0 375 374.999991" height="500" preserveAspectRatio="xMidYMid meet" version="1.0"><defs><g/></defs><g fill="#000000" fill-opacity="1"><g transform="translate(91.484843, 207.198134)"><g><path d="M 18.53125 0 L 31.140625 0 L 31.140625 -45.921875 C 40.828125 -45.921875 47.59375 -39.90625 47.59375 -31.21875 L 48.421875 -31.21875 L 48.421875 -46.75 L 1.25 -46.75 L 1.25 -31.21875 L 2.09375 -31.21875 C 2.09375 -39.90625 8.84375 -45.921875 18.53125 -45.921875 Z M 18.53125 0 "/></g></g></g><g fill="#000000" fill-opacity="1"><g transform="translate(136.396942, 207.198134)"><g><path d="M 4.171875 0 L 16.359375 0 L 16.359375 -26.296875 C 17.359375 -27.71875 19.703125 -30.140625 20.375 -30.71875 C 23.453125 -33.390625 26.546875 -32.890625 26.546875 -28.296875 L 26.546875 0 L 38.734375 0 L 38.734375 -28.046875 C 38.734375 -31.8125 34.890625 -35.390625 29.140625 -35.390625 C 23.546875 -35.390625 18.875 -30.96875 16.359375 -27.71875 L 16.359375 -51.765625 L 4.171875 -51.765625 Z M 4.171875 0 "/></g></g></g><g fill="#000000" fill-opacity="1"><g transform="translate(174.54713, 207.198134)"><g><path d="M 10.6875 -38.65625 C 14.359375 -38.65625 17.28125 -41.578125 17.28125 -45.25 C 17.28125 -48.84375 14.359375 -51.765625 10.6875 -51.765625 C 7.09375 -51.765625 4.171875 -48.84375 4.171875 -45.25 C 4.171875 -41.578125 7.09375 -38.65625 10.6875 -38.65625 Z M 4.59375 0 L 16.78125 0 L 16.78125 -33.984375 L 4.59375 -34.0625 Z M 4.59375 0 "/></g></g></g><g fill="#000000" fill-opacity="1"><g transform="translate(191.242843, 207.198134)"><g><path d="M 20.625 0.828125 C 29.546875 0.828125 35.0625 -5.34375 36.8125 -13.4375 L 35.890625 -13.609375 C 34.140625 -8.34375 30.140625 -4.671875 25.46875 -4.671875 C 19.125 -4.671875 14.53125 -10.609375 14.109375 -21.203125 L 35.8125 -21.203125 C 35.8125 -29.96875 29.546875 -34.984375 20.625 -34.984375 C 10.4375 -34.984375 2.09375 -26.96875 2.09375 -17.109375 C 2.09375 -7.171875 10.4375 0.828125 20.625 0.828125 Z M 14.109375 -22.046875 C 14.1875 -28.796875 16.859375 -34.0625 20.125 -34.0625 C 23.375 -34.0625 24.625 -28.796875 24.625 -22.046875 Z M 14.109375 -22.046875 "/></g></g></g><g fill="#000000" fill-opacity="1"><g transform="translate(225.385972, 207.198134)"><g><path d="M 4.171875 0 L 16.359375 0 L 16.359375 -26.296875 C 17.359375 -27.71875 19.703125 -30.140625 20.375 -30.71875 C 23.453125 -33.390625 26.546875 -32.890625 26.546875 -28.296875 L 26.546875 0 L 38.734375 0 L 38.734375 -28.046875 C 38.734375 -31.8125 34.890625 -35.390625 29.140625 -35.390625 C 23.546875 -35.390625 18.875 -30.96875 16.359375 -27.71875 L 16.359375 -34.0625 L 4.171875 -34.0625 Z M 4.171875 0 "/></g></g></g><g fill="#000000" fill-opacity="1"><g transform="translate(263.53616, 207.198134)"><g><path d="M 10.015625 0.828125 C 13.1875 0.828125 15.78125 -1.75 15.78125 -5.015625 C 15.78125 -8.265625 13.1875 -10.859375 10.015625 -10.859375 C 6.765625 -10.859375 4.171875 -8.265625 4.171875 -5.015625 C 4.171875 -1.75 6.765625 0.828125 10.015625 0.828125 Z M 10.015625 0.828125 "/></g></g></g></svg>